<svg width="232" height="232" viewBox="0 0 232 232" fill="none" xmlns="http://www.w3.org/2000/svg">
<g filter="url(#filter0_d_0_1)">
<circle cx="116" cy="116" r="52" fill="white"/>
</g>
<path d="M128.25 96.75H130.583C133.16 96.75 135.25 98.8395 135.25 101.417V103.75" stroke="#FBD531" stroke-width="3" stroke-miterlimit="10" stroke-linecap="round" stroke-linejoin="round"/>
<path d="M128.64 92.666C128.814 92.666 128.992 92.6998 129.16 92.7698C129.669 92.9798 130 93.4757 130 94.0275V99.4712C130 100.022 129.669 100.518 129.16 100.729C128.65 100.94 128.066 100.822 127.677 100.434L124.956 97.7107C124.424 97.1798 124.424 96.3177 124.956 95.7868L127.677 93.065C127.936 92.8037 128.285 92.666 128.64 92.666Z" fill="#FBD531"/>
<path d="M103.75 135.25H101.417C98.8395 135.25 96.75 133.16 96.75 130.583V128.25" stroke="#FBD531" stroke-width="3" stroke-miterlimit="10" stroke-linecap="round" stroke-linejoin="round"/>
<path d="M103.36 139.333C103.187 139.333 103.008 139.3 102.84 139.23C102.331 139.02 102 138.524 102 137.972V132.528C102 131.978 102.331 131.482 102.84 131.271C103.35 131.059 103.934 131.177 104.323 131.566L107.045 134.289C107.577 134.82 107.577 135.682 107.045 136.213L104.323 138.934C104.064 139.196 103.715 139.333 103.36 139.333Z" fill="#FBD531"/>
<path d="M123.001 107.834C114.638 107.834 107.834 114.638 107.834 123.001C107.834 131.363 114.638 138.167 123.001 138.167C131.363 138.167 138.167 131.363 138.167 123.001C138.167 114.638 131.363 107.834 123.001 107.834ZM122.709 121.542C123.514 121.542 124.167 122.196 124.167 123.001C124.167 123.806 123.514 124.459 122.709 124.459H120.013C120.476 125.99 121.636 127.084 123.001 127.084C123.808 127.084 125.277 126.819 126.039 125.049C126.355 124.311 127.216 123.965 127.954 124.285C128.695 124.602 129.037 125.461 128.718 126.201C127.695 128.581 125.558 130.001 123.001 130.001C120.062 130.001 117.6 127.621 117.011 124.459H116.292C115.487 124.459 114.834 123.806 114.834 123.001C114.834 122.196 115.487 121.542 116.292 121.542H117.011C117.6 118.381 120.062 116.001 123.001 116.001C125.558 116.001 127.695 117.42 128.717 119.799C129.035 120.539 128.693 121.398 127.953 121.715C127.216 122.037 126.355 121.69 126.037 120.951C125.277 119.182 123.808 118.917 123.001 118.917C121.637 118.917 120.476 120.012 120.013 121.542H122.709Z" fill="#FBD531"/>
<path d="M105.501 123.001C105.501 120.477 106.045 118.084 107.007 115.917C105.634 115.68 104.495 114.932 103.996 114.184C103.549 113.514 103.73 112.608 104.4 112.162C105.063 111.72 105.959 111.894 106.411 112.548C106.542 112.698 107.114 113.084 107.879 113.084H108.589C109.191 112.21 109.865 111.391 110.613 110.642C110.413 110.536 110.194 110.459 109.949 110.459H108.345C105.973 110.459 104.043 108.562 104.043 106.23C104.043 104.167 105.554 102.451 107.543 102.08V101.126C107.543 100.321 108.197 99.6673 109.002 99.6673C109.807 99.6673 110.46 100.321 110.46 101.126V102.052C112.398 102.298 113.338 103.681 113.447 103.853C113.874 104.536 113.666 105.436 112.984 105.863C112.302 106.293 111.402 106.084 110.975 105.4C110.957 105.379 110.609 104.918 109.878 104.918H108.346C107.582 104.918 106.961 105.508 106.961 106.231C106.961 106.954 107.582 107.543 108.346 107.543H109.95C111.099 107.543 112.139 107.995 112.912 108.719C115.764 106.699 119.239 105.501 123.001 105.501C123.255 105.501 123.502 105.527 123.753 105.539C122.18 98.8413 116.171 93.834 109.001 93.834C100.638 93.834 93.834 100.638 93.834 109.001C93.834 116.171 98.8413 122.18 105.539 123.753C105.527 123.502 105.501 123.255 105.501 123.001Z" fill="#FBD531" fill-opacity="0.4"/>
<defs>
<filter id="filter0_d_0_1" x="0" y="0" width="232" height="232" filterUnits="userSpaceOnUse" color-interpolation-filters="sRGB">
<feFlood flood-opacity="0" result="BackgroundImageFix"/>
<feColorMatrix in="SourceAlpha" type="matrix" values="0 0 0 0 0 0 0 0 0 0 0 0 0 0 0 0 0 0 127 0" result="hardAlpha"/>
<feOffset/>
<feGaussianBlur stdDeviation="32"/>
<feComposite in2="hardAlpha" operator="out"/>
<feColorMatrix type="matrix" values="0 0 0 0 0 0 0 0 0 0 0 0 0 0 0 0 0 0 0.16 0"/>
<feBlend mode="normal" in2="BackgroundImageFix" result="effect1_dropShadow_0_1"/>
<feBlend mode="normal" in="SourceGraphic" in2="effect1_dropShadow_0_1" result="shape"/>
</filter>
</defs>
</svg>
