<svg width="232" height="232" viewBox="0 0 232 232" fill="none" xmlns="http://www.w3.org/2000/svg">
<g filter="url(#filter0_d_0_1)">
<circle cx="116" cy="116" r="52" fill="white"/>
</g>
<path d="M131.75 95H119.251C119.41 95.5577 119.5 96.1422 119.5 96.75V102.583C119.5 105.061 118.086 107.21 116.025 108.279C116.682 108.733 117.477 109 118.333 109H128.303L133.112 112.206C133.405 112.402 133.744 112.5 134.083 112.5C134.367 112.5 134.65 112.431 134.909 112.293C135.477 111.989 135.833 111.395 135.833 110.75V99.0833C135.833 96.8317 134.001 95 131.75 95Z" fill="#FBD531"/>
<path d="M97.916 110.166C97.6325 110.166 97.349 110.097 97.09 109.96C96.5218 109.655 96.166 109.061 96.166 108.416V96.7493C96.166 94.4977 97.9977 92.666 100.249 92.666H113.083C115.334 92.666 117.166 94.4977 117.166 96.7493V102.583C117.166 104.834 115.334 106.666 113.083 106.666H103.696L98.8867 109.872C98.5938 110.068 98.2555 110.166 97.916 110.166Z" fill="#FBD531" fill-opacity="0.4"/>
<path d="M105.499 125.333C108.721 125.333 111.333 122.721 111.333 119.499C111.333 116.278 108.721 113.666 105.499 113.666C102.278 113.666 99.666 116.278 99.666 119.499C99.666 122.721 102.278 125.333 105.499 125.333Z" fill="#FBD531"/>
<path d="M126.499 125.333C129.721 125.333 132.333 122.721 132.333 119.499C132.333 116.278 129.721 113.666 126.499 113.666C123.278 113.666 120.666 116.278 120.666 119.499C120.666 122.721 123.278 125.333 126.499 125.333Z" fill="#FBD531" fill-opacity="0.4"/>
<path d="M105.499 139.334C100.178 139.334 96.166 136.827 96.166 133.501V132.917C96.166 130.666 97.9977 128.834 100.249 128.834H110.749C113.001 128.834 114.833 130.666 114.833 132.917V133.501C114.833 136.827 110.821 139.334 105.499 139.334Z" fill="#FBD531"/>
<path d="M126.499 139.334C121.178 139.334 117.166 136.827 117.166 133.501V132.917C117.166 130.666 118.998 128.834 121.249 128.834H131.749C134.001 128.834 135.833 130.666 135.833 132.917V133.501C135.833 136.827 131.821 139.334 126.499 139.334Z" fill="#FBD531" fill-opacity="0.4"/>
<defs>
<filter id="filter0_d_0_1" x="0" y="0" width="232" height="232" filterUnits="userSpaceOnUse" color-interpolation-filters="sRGB">
<feFlood flood-opacity="0" result="BackgroundImageFix"/>
<feColorMatrix in="SourceAlpha" type="matrix" values="0 0 0 0 0 0 0 0 0 0 0 0 0 0 0 0 0 0 127 0" result="hardAlpha"/>
<feOffset/>
<feGaussianBlur stdDeviation="32"/>
<feComposite in2="hardAlpha" operator="out"/>
<feColorMatrix type="matrix" values="0 0 0 0 0 0 0 0 0 0 0 0 0 0 0 0 0 0 0.16 0"/>
<feBlend mode="normal" in2="BackgroundImageFix" result="effect1_dropShadow_0_1"/>
<feBlend mode="normal" in="SourceGraphic" in2="effect1_dropShadow_0_1" result="shape"/>
</filter>
</defs>
</svg>
