<svg width="232" height="232" viewBox="0 0 232 232" fill="none" xmlns="http://www.w3.org/2000/svg">
<g filter="url(#filter0_d_0_1)">
<circle cx="116" cy="116" r="52" fill="white"/>
</g>
<path d="M116.001 115.999C109.568 115.999 104.334 110.766 104.334 104.333C104.334 97.8997 109.568 92.666 116.001 92.666C122.434 92.666 127.667 97.8997 127.667 104.333C127.667 110.766 122.434 115.999 116.001 115.999Z" fill="#FBD531" fill-opacity="0.4"/>
<path d="M140.134 117.53C138.094 115.489 134.772 115.491 132.734 117.53L118.715 131.548C118.352 131.91 118.088 132.36 117.948 132.852L116.068 139.434C115.894 140.044 116.063 140.703 116.514 141.152C116.846 141.485 117.293 141.664 117.752 141.664C117.913 141.664 118.074 141.642 118.232 141.597L124.816 139.716C125.31 139.575 125.762 139.308 126.117 138.95L140.135 124.932C141.122 123.943 141.667 122.628 141.667 121.23C141.667 119.832 141.122 118.518 140.134 117.53Z" fill="#FBD531"/>
<path d="M113.727 139.246C113.752 139.095 113.782 138.943 113.824 138.793L115.703 132.21C115.952 131.338 116.423 130.536 117.067 129.896L126.298 120.666H102.584C99.6895 120.666 97.334 123.022 97.334 125.916V126.806C97.334 129.553 98.4762 132.192 100.469 134.048C102.807 136.224 106.953 138.77 113.727 139.246Z" fill="#FBD531" fill-opacity="0.4"/>
<defs>
<filter id="filter0_d_0_1" x="0" y="0" width="232" height="232" filterUnits="userSpaceOnUse" color-interpolation-filters="sRGB">
<feFlood flood-opacity="0" result="BackgroundImageFix"/>
<feColorMatrix in="SourceAlpha" type="matrix" values="0 0 0 0 0 0 0 0 0 0 0 0 0 0 0 0 0 0 127 0" result="hardAlpha"/>
<feOffset/>
<feGaussianBlur stdDeviation="32"/>
<feComposite in2="hardAlpha" operator="out"/>
<feColorMatrix type="matrix" values="0 0 0 0 0 0 0 0 0 0 0 0 0 0 0 0 0 0 0.16 0"/>
<feBlend mode="normal" in2="BackgroundImageFix" result="effect1_dropShadow_0_1"/>
<feBlend mode="normal" in="SourceGraphic" in2="effect1_dropShadow_0_1" result="shape"/>
</filter>
</defs>
</svg>
