<svg width="232" height="232" viewBox="0 0 232 232" fill="none" xmlns="http://www.w3.org/2000/svg">
<g filter="url(#filter0_d_0_1)">
<circle cx="116" cy="116" r="52" fill="white"/>
</g>
<path d="M109.292 109H99.959C97.0645 109 94.709 106.644 94.709 103.75V100.25C94.709 97.3555 97.0645 95 99.959 95H109.292C112.187 95 114.542 97.3555 114.542 100.25V103.75C114.542 106.644 112.187 109 109.292 109Z" fill="#FBD531" fill-opacity="0.4"/>
<path d="M109.292 137.292H99.959C97.0645 137.292 94.709 134.936 94.709 132.042V116.875C94.709 113.98 97.0645 111.625 99.959 111.625H109.292C112.187 111.625 114.542 113.98 114.542 116.875V132.042C114.542 134.936 112.187 137.292 109.292 137.292Z" fill="#FBD531"/>
<path d="M131.749 137.291H122.416C119.522 137.291 117.166 134.936 117.166 132.041V128.541C117.166 125.647 119.522 123.291 122.416 123.291H131.749C134.644 123.291 136.999 125.647 136.999 128.541V132.041C136.999 134.936 134.644 137.291 131.749 137.291Z" fill="#FBD531" fill-opacity="0.4"/>
<path d="M131.749 120.667H122.416C119.522 120.667 117.166 118.311 117.166 115.417V100.25C117.166 97.3555 119.522 95 122.416 95H131.749C134.644 95 136.999 97.3555 136.999 100.25V115.417C136.999 118.311 134.644 120.667 131.749 120.667Z" fill="#FBD531"/>
<defs>
<filter id="filter0_d_0_1" x="0" y="0" width="232" height="232" filterUnits="userSpaceOnUse" color-interpolation-filters="sRGB">
<feFlood flood-opacity="0" result="BackgroundImageFix"/>
<feColorMatrix in="SourceAlpha" type="matrix" values="0 0 0 0 0 0 0 0 0 0 0 0 0 0 0 0 0 0 127 0" result="hardAlpha"/>
<feOffset/>
<feGaussianBlur stdDeviation="32"/>
<feComposite in2="hardAlpha" operator="out"/>
<feColorMatrix type="matrix" values="0 0 0 0 0 0 0 0 0 0 0 0 0 0 0 0 0 0 0.16 0"/>
<feBlend mode="normal" in2="BackgroundImageFix" result="effect1_dropShadow_0_1"/>
<feBlend mode="normal" in="SourceGraphic" in2="effect1_dropShadow_0_1" result="shape"/>
</filter>
</defs>
</svg>
