<svg width="449" height="12" viewBox="0 0 449 12" fill="none" xmlns="http://www.w3.org/2000/svg">
<path d="M426.659 1.74081C447.727 2.82689 444.283 2.01367 443.723 2.5502L449 3.18438L445.015 4.09586L445.972 4.45572C445.712 4.51846 445.417 4.65134 445.154 4.64483C438.627 4.48591 432.315 5.21893 425.737 5.07126C419.128 4.87687 412.478 4.88678 405.875 5.10086C400.551 5.31275 395.277 5.37785 389.957 5.44118C388.318 5.46071 386.978 5.00616 384.984 5.36956C383.494 5.64123 381.174 5.42313 379.224 5.42313H372.788C370.838 5.42313 368.888 5.42106 366.938 5.42313C364.988 5.4252 363.051 5.43053 361.108 5.44444C360.966 5.44444 360.831 5.52908 360.336 5.69154L365.26 5.8987C365.252 5.98008 365.244 6.06117 365.236 6.14226C363.203 6.15883 361.17 6.18191 359.136 6.1899C356.991 6.19818 354.845 6.19463 352.701 6.1899C352.336 6.1899 351.793 6.19582 351.634 6.12539C349.471 5.17307 347.042 5.29085 344.163 5.77855C343.081 5.96114 341.479 5.80815 340.114 5.80815C321.781 5.80815 303.45 5.79808 285.118 5.82264C283.122 5.8253 280.818 5.50214 279.152 6.18842C279.067 6.20391 278.972 6.21205 278.874 6.21205C278.777 6.21205 278.682 6.20391 278.597 6.18842C276.95 5.55334 275.074 6.50152 273.765 6.16593C272.073 5.73209 270.938 5.80755 269.349 6.16326C268.863 6.27187 267.591 6.07715 266.8 5.94427C265.694 5.75813 265.764 5.50037 266.789 5.27546C266.588 5.19674 266.429 5.07393 266.175 5.05026C265.839 5.01829 265.225 5.01859 265.099 5.0831C264.715 5.27901 264.664 5.5634 264.198 5.71818C263.608 5.94942 262.794 6.10717 261.892 6.16504C260.54 6.17096 258.878 5.80134 257.899 5.95937C257.271 6.07519 256.565 6.13719 255.845 6.13962C255.125 6.14205 254.415 6.08484 253.78 5.97327C252.716 5.83122 251.142 6.17333 249.791 6.18043C244.346 6.21002 238.9 6.19256 233.582 6.19256L232.14 5.42313C231.41 5.62703 230.681 5.83122 229.318 6.21268C227.043 6.40178 223.092 5.68888 220.715 6.98744L218.789 6.29081C214.37 6.74989 209.625 6.74431 205.216 6.27483C200.594 6.97531 195.801 6.36361 191.13 6.60598C191.286 6.35225 191.352 6.09348 191.327 5.83478C189.509 5.63443 189.8 6.17954 189.291 6.54502H183.082C182.769 6.82438 182.521 7.04633 182.258 7.2819C181.987 7.23691 181.608 7.2159 181.466 7.14399C180.355 6.58734 178.453 6.35888 176.96 6.60776C173.445 7.19194 169.832 6.88239 166.276 6.94779C163.212 7.00431 160.133 6.95963 157.001 7.23751L162.629 7.42425C158.341 7.54765 153.783 8.34164 150.576 7.06557C148.641 7.19194 146.685 7.28087 144.718 7.33191C139.107 7.36417 133.491 7.34375 127.993 7.34375C127.648 7.66928 127.412 7.8936 127.059 8.22653C126.114 7.75865 125.342 7.3769 124.572 6.99544C124.176 7.52279 123.252 8.06998 121.578 7.69207C119.809 7.29226 118.794 7.56659 117.173 7.67283C114.212 7.86696 111.045 7.72816 107.877 7.97675L112.312 8.20551C112.07 8.33039 111.909 8.48606 111.745 8.48635C107.456 8.49967 103.152 8.56212 98.878 8.47541C95.7238 8.41119 92.676 7.94776 89.4155 8.11437C89.1037 8.1251 88.8021 8.15693 88.5298 8.20787C88.2574 8.2588 88.0201 8.32773 87.833 8.4103L92.5282 8.57188C87.6365 8.73701 82.843 9.17529 77.9117 8.57513C75.7299 8.30879 72.9983 8.53045 70.3668 8.73464L73.6292 8.99773C73.4399 9.09894 73.2867 9.2549 73.1245 9.25608C71.1806 9.26881 69.2349 9.25875 67.2901 9.25608C66.2457 8.44522 64.683 9.64878 63.0933 9.1161C62.0614 8.77015 59.9084 9.58398 57.8167 8.95334C56.6785 8.61035 53.7956 8.89208 51.6165 9.14126L56.2261 9.37801C55.8855 9.50052 55.6764 9.64227 55.461 9.64435C52.5366 9.65885 49.6032 9.61269 46.6869 9.66299C40.9932 9.76095 35.2165 9.75355 29.6543 10.1013C26.656 10.2889 23.7163 10.3277 20.7504 10.4457C18.2046 10.5469 15.7245 10.8414 14.7304 11.9476C13.7148 11.9476 11.4591 12.0793 11.2599 11.9251C10.3912 11.2498 7.74525 11.1788 7.15676 10.5984C6.59892 10.0492 5.6779 9.87991 4.29546 9.62481C1.50174 9.10988 0.902447 8.12384 2.31282 7.16382L0.00484877 6.36125C0.0381931 6.22275 -0.0798654 6.05554 0.120201 5.98067C2.21592 5.18675 5.17477 4.69377 8.36347 4.60724C14.0888 4.37434 19.6825 3.79756 25.5493 3.88782C28.9099 3.21427 32.6336 3.62148 36.1781 3.49718C38.952 3.39953 41.697 3.19829 44.4745 3.13289C47.1907 3.06897 50.2133 3.36076 52.5952 3.06157C56.0197 2.63099 59.3785 2.68603 62.7003 2.76919C66.9711 2.87632 70.9075 2.31019 75.0954 2.34274C79.3833 2.37618 83.8542 2.60435 87.9276 2.29599C95.7932 1.70027 103.708 2.29362 111.449 1.92695C121.049 1.4721 130.743 1.91453 140.208 1.51501C152.959 0.977004 165.659 1.38539 178.364 1.19984C179.92 1.17705 181.484 1.20251 183.044 1.19511C184.356 1.18919 185.8 1.30904 186.676 0.829625C187.372 1.43629 188.882 0.770439 190.1 1.06193C190.843 1.2395 192.699 0.869285 194.079 0.825191C195.624 0.774882 197.195 0.813649 198.756 0.813649H216.308C217.868 0.813649 219.439 0.776358 220.985 0.823412C222.814 0.878751 224.625 0.675449 226.52 1.10219C227.431 1.30697 229.551 0.843534 231.135 0.829625C236.007 0.786123 240.887 0.841174 245.76 0.800039C247.571 0.784354 249.612 1.07851 251.157 0.437815C252.174 0.0169953 252.929 1.17291 254.463 0.543164C254.948 0.344 257.378 0.31145 257.639 0.454387C259.113 1.2617 260.78 0.0365264 261.904 0.533401C263.495 1.23684 264.486 0.409103 265.767 0.435738C266.497 0.465213 267.219 0.510289 267.93 0.570682C269.192 0.652064 271.198 0.93439 271.589 0.77784C273.191 0.14158 275.062 0.765407 276.816 0.520965C278.635 0.267645 281.005 0.430409 283.133 0.430409C321.358 0.428042 359.581 0.447573 397.805 0.406142C402.901 0.400519 408.169 0.820453 413.117 0.0442162C415.719 0.778431 418.29 -0.0368667 420.929 0.00130892C429.098 0.119683 437.293 0.0442162 446.041 0.0442162C445.745 0.343406 445.567 0.774584 445.273 0.784054C441.142 0.908642 437.141 1.27974 432.891 1.22796C424.322 1.12497 415.732 1.19511 407.152 1.20517C406.841 1.20517 406.533 1.32354 406.223 1.38865C406.591 1.46503 406.984 1.52804 407.394 1.57657C408.424 1.66062 409.372 2.08646 410.586 1.60054C410.9 1.47506 412.076 1.5816 412.856 1.5816C424.149 1.5816 435.443 1.5816 426.653 1.74348C406.273 1.83729 406.295 1.76952 406.316 1.70145C404.529 1.51419 402.711 1.36045 400.872 1.24098C399.892 1.19274 393.701 1.26318 392.813 1.22234C392.053 1.18712 390.885 1.0939 390.56 1.21583C388.97 1.81983 386.945 1.57094 385.127 1.57094C357.421 1.58633 329.717 1.58466 302.013 1.56591C300.391 1.56591 298.531 1.84883 297.056 1.31674C296.776 1.21553 295.754 1.16582 295.551 1.23773C293.775 1.86807 291.528 1.50407 289.513 1.57272C285.388 1.71507 281.172 1.34041 277.077 1.92992C275.919 2.09653 274.158 1.85682 272.71 1.74999C269.924 1.54461 267.161 1.39724 264.445 1.81806C263.497 1.96602 262.324 1.41529 261.543 1.93643C260.045 1.31704 257.531 1.41706 256.226 1.64049C254.057 2.01515 252.489 1.30461 250.661 1.57953C250.334 1.62866 249.842 1.61297 249.641 1.68843C248.68 2.05036 247.988 1.96809 246.73 1.74407C245.361 1.51899 243.78 1.47493 242.315 1.62096C240.743 1.84004 239.035 1.93277 237.333 1.89144C235.336 1.75857 233.645 1.9388 231.817 1.96069C217.546 2.13293 203.267 1.7275 188.973 2.30398C178.304 2.73427 167.488 2.15039 156.668 2.66709C146.828 3.13733 136.741 2.54546 126.72 3.06305C118.822 3.47115 110.661 2.89229 102.619 3.45901C98.8889 3.7218 94.8245 3.42321 90.9484 3.52738C87.3905 3.62296 83.9191 3.35366 80.1845 3.77773C76.7005 4.1731 72.4901 3.87392 68.6005 3.89345C67.99 3.91402 67.3866 3.95315 66.7981 4.01034C67.0831 4.10881 67.4349 4.18378 67.8248 4.22914C68.2148 4.2745 68.6319 4.28896 69.0421 4.27135C75.9128 4.19293 82.7457 4.29828 89.6561 3.94848C97.9543 3.52855 106.45 4.06301 114.93 3.56377C122.799 3.10152 131.062 3.91268 138.988 3.11069C140.103 2.99794 141.049 3.84846 142.153 3.14266C143.42 3.77536 144.607 3.10241 145.833 3.09412C155.432 3.02902 165.084 3.40989 174.625 2.74788C175.904 2.6591 177.819 2.58719 178.552 2.81506C180.209 3.33087 181.02 2.52504 182.461 2.70349C183.656 2.85145 185.157 2.73308 186.522 2.73308C194.327 2.73308 202.132 2.75379 209.935 2.71887C211.942 2.7097 214.177 3.00949 215.978 2.38921C216.178 2.32026 217.232 2.54487 217.916 2.59429C218.818 2.65969 220.297 2.82453 220.571 2.70645C221.66 2.23917 222.303 2.64726 223.232 2.69461C224.161 2.74196 225.232 2.37234 226.24 2.37264C227.868 2.37264 229.775 2.1063 231.074 2.69314C232.207 2.25367 233.76 2.34837 235.219 2.35251C236.705 2.35636 238.354 2.19329 239.409 2.72657C240.462 2.18087 242.139 2.35518 243.615 2.3537C253.371 2.34423 263.132 2.42294 272.879 2.32765C282.473 2.23384 292.151 2.76534 301.661 1.96424C302.833 2.33357 304.358 2.1344 305.67 2.16932C307.366 2.2149 309.115 1.982 310.843 1.98022C312.841 1.97815 315.029 1.75295 316.754 2.31522C318.665 1.62777 321.154 1.98555 323.332 1.98318C349.086 1.95359 374.839 1.96543 400.593 1.96158C402.496 1.9604 404.377 1.9234 426.659 1.74081Z" fill="#7DC4A4"/>
</svg>
