<svg width="28" height="28" viewBox="0 0 28 28" fill="none" xmlns="http://www.w3.org/2000/svg">
<path d="M23.8288 7.74011L13.1597 18.4093C12.9893 18.5802 12.7653 18.6654 12.5413 18.6654C12.3173 18.6654 12.0933 18.5802 11.9224 18.4093L9.00576 15.4926C8.66393 15.1508 8.66393 14.5972 9.00576 14.2554C9.34759 13.9135 9.90117 13.9135 10.243 14.2554L12.5408 16.5531L22.7666 6.32728C20.6269 3.88428 17.4944 2.33203 13.9997 2.33203C7.56667 2.33203 2.33301 7.5657 2.33301 13.9987C2.33301 20.4317 7.56667 25.6654 13.9997 25.6654C20.4327 25.6654 25.6663 20.4317 25.6663 13.9987C25.6663 11.6951 24.9862 9.55078 23.8288 7.74011Z" fill="#2DA55F"/>
</svg>
