<svg width="276" height="276" viewBox="0 0 276 276" fill="none" xmlns="http://www.w3.org/2000/svg">
<g clip-path="url(#clip0_1054_1322)">
<path d="M205.925 99.186C206.167 99.3306 206.329 99.4272 206.58 99.5774L206.658 99.045C207.764 98.7292 208.899 98.4371 210.012 98.0796C211.505 97.6008 212.948 97.0246 214.512 96.6959C215.839 96.4174 217.155 95.7024 218.512 95.7127C219.794 95.7219 220.741 94.6248 222.023 94.9317C223.124 94.09 224.516 94.5248 225.72 94.0954C226.073 93.969 226.443 94.0147 226.786 93.7091C227.129 93.4036 227.205 93.4837 228.259 93.8055C228.373 93.7192 228.527 93.6105 228.671 93.4909C228.774 93.4053 228.9 93.2065 228.955 93.2253C230.301 93.7073 231.278 92.2723 232.572 92.5366C232.695 92.5617 232.867 92.6717 232.928 92.6258C234.633 91.3183 236.849 91.7239 238.685 90.8928C239.373 90.5811 240.095 90.8998 240.768 90.6334C241.056 90.5191 241.366 90.459 241.704 90.3634C241.994 90.5765 242.308 90.7549 242.64 90.8949C243.07 90.976 243.507 91.0136 243.945 91.007C243.516 92.1138 242.529 92.5642 242.226 93.563L243.92 92.0204L244.391 92.2916C243.156 94.6886 243.193 94.7748 240.191 96.034C238.068 96.9251 236.041 98.1456 233.669 98.3563C232.152 99.3155 230.363 99.4923 228.709 100.05C226.453 100.81 224.121 101.338 221.847 102.049C218.985 102.942 216.144 103.901 213.306 104.867C210.649 105.771 208.071 106.864 205.497 107.994C203.799 108.739 202.031 109.388 200.309 110.115C198.588 110.843 196.89 111.629 195.188 112.402C193.939 112.969 192.598 113.409 191.483 114.176C190.303 114.988 188.857 115.031 187.703 115.828C186.976 116.331 186.017 116.475 185.466 117.263C185.39 117.372 185.289 117.523 185.181 117.541C183.382 117.847 182.046 119.093 180.478 119.864C178.849 120.666 177.271 121.575 175.694 122.479C174.823 122.978 174.023 123.587 173.072 123.966C171.95 124.413 171.117 125.342 170.025 125.887C168.686 126.581 167.39 127.357 166.145 128.211C164.929 129.019 163.695 129.798 162.444 130.55C160.01 132.012 157.779 133.801 155.203 135.038C154.521 135.366 154.089 136.021 153.323 136.359C152.291 136.815 151.562 138.061 150.525 138.375C149.379 138.72 149.039 140.111 147.785 140.087C146.349 141.607 144.347 142.381 142.859 143.842C142.416 144.277 141.804 144.536 141.276 144.884C140.692 145.269 140.105 145.65 139.536 146.056C139.019 146.425 138.76 147.191 137.936 147.078C137.286 147.927 136.271 148.319 135.508 148.995C134.527 149.861 133.187 150.263 132.452 151.421C131.348 151.362 131.082 152.806 129.979 152.804C129.786 152.804 129.594 153.148 129.399 153.33C128.834 153.859 128.346 154.423 127.528 154.686C126.83 154.912 126.585 155.854 125.643 156.024C125.101 156.121 124.683 156.905 124.229 157.359L123.168 157.36C122.917 158.671 121.918 158.964 120.797 159.103C120.877 159.988 120.155 160.558 119.586 160.723C118.853 160.937 118.484 161.423 118.031 161.861C116.705 163.14 115.016 163.978 113.815 165.426C113.507 165.798 112.788 165.829 112.273 166.012C112.173 166.287 112.052 166.555 111.909 166.811C111.446 167.519 110.587 167.775 110.094 168.543C109.684 169.18 108.823 169.62 108.071 169.905C107.657 170.062 107.755 170.355 107.607 170.478C106.766 171.18 106.34 172.373 105.052 172.575C104.729 172.626 104.475 173.113 104.189 173.399C102.139 175.449 100.094 177.507 98.032 179.546C97.567 180.006 97.0989 180.525 96.5277 180.797C95.9409 181.078 96.1809 181.838 95.562 182.051C95.1619 182.188 94.8225 182.502 94.3949 182.776C94.1338 183.235 93.8321 183.669 93.4935 184.074C91.993 185.625 90.5306 187.227 88.9058 188.639C86.8833 190.398 85.4454 192.647 83.6629 194.603C82.3774 196.013 81.6049 197.89 80.5248 199.691L79.0241 200.388L78.992 200.907L77.1783 200.741L78.8828 197.873L77.7051 197.672L76.2308 199.146L75.1142 199.147L75.3789 197.342L74.5077 197.726C73.5428 197.109 73.5869 196.115 73.5711 195.152C73.3806 195.142 73.1923 195.131 73.1451 195.128L73.1605 192.995C73.63 192.707 74.5945 192.731 74.7239 191.733C74.533 191.721 74.3424 191.711 73.9804 191.689L75.9686 190.254L75.8039 189.983L74.7178 190.649L75.209 189.098C75.4561 189.184 75.6694 189.258 76.0801 189.4L77.1475 188.451C76.7433 188.287 76.4487 188.168 75.9098 187.951C76.2589 187.602 76.4669 187.362 76.7061 187.159C78.4353 185.696 79.4382 183.609 81.1433 182.102C82.8581 180.586 84.3646 178.836 86.0618 177.298C86.4236 176.97 86.0988 176.226 86.8949 176.213C87.1409 176.209 87.3735 175.447 87.6213 175.441C88.5202 175.418 88.016 174.592 88.4137 174.248C89.1041 173.652 89.9838 173.413 90.639 172.706C92.6078 170.58 94.6852 168.553 96.7737 166.542C97.5609 165.784 98.5294 165.217 99.3501 164.489C100.192 163.743 100.953 162.907 101.804 162.171C100.961 163.664 98.1699 166.381 96.7526 167.454C97.03 167.304 97.3072 167.155 97.5842 167.006L97.6019 167.402C98.4579 166.546 99.3639 165.734 100.158 164.823C101.295 163.519 103.043 162.954 104.057 161.518C104.866 161.469 105.214 160.576 105.815 160.41C106.773 160.146 106.637 158.985 107.634 158.729C108.387 158.535 108.983 157.728 109.79 157.08L110.498 157.007C110.531 157.1 110.565 157.192 110.598 157.285L105.943 161.052L105.901 161.658L106.745 161.657C106.781 161.414 106.816 161.172 106.893 160.648L108.065 161.354L108.111 160.809L108.325 160.173L108.883 160.539L111.114 159.183C110.976 158.799 110.873 158.511 110.756 158.184L112.745 157.255L112.949 156.453L114.789 156.669L114.79 156.023L115.938 155.628L115.924 156.473L115.282 156.517L114.833 157.723L114.068 157.353L113.249 159.011C112.247 159.124 111.892 160.217 111.008 160.78L109.924 160.81C110.045 161.727 109.095 161.939 108.734 162.673C108.853 162.808 109.006 162.98 109.277 163.287C109.323 162.926 109.343 162.759 109.381 162.456L110.508 162.676L110.472 161.46L111.857 161.014C111.864 160.187 112.506 160.011 113.201 159.772C113.787 159.569 114.297 159.154 114.877 158.811L116.109 159.15C115.867 158.565 115.757 158.301 115.592 157.904C116.07 157.548 116.58 157.167 117.091 156.787C117.607 156.405 118.08 155.813 118.651 155.693C119.417 155.533 119.004 154.543 119.847 154.442C120.413 154.375 120.917 153.787 121.443 153.437C121.351 152.943 121.281 152.573 121.15 151.879L119.929 153.344L119.418 153.365L119.35 152.82L118.852 152.771C118.85 152.67 118.8 152.502 118.853 152.454C119.3 152.067 119.793 151.729 120.221 151.323C120.68 150.886 121.017 150.108 121.527 149.986C122.304 149.8 122.518 149.126 123.141 148.788L124.382 148.756L124.595 147.458C122.456 148.211 120.895 149.644 118.903 150.961C119.345 150.154 119.965 149.458 120.715 148.925C121.09 148.636 121.648 148.589 122.015 148.162C122.306 147.823 123.003 147.625 123.037 147.312C123.125 146.515 123.796 146.944 124.079 146.647C124.434 146.241 124.819 145.862 125.229 145.512C125.726 145.124 126.306 144.844 126.813 144.466C127.263 144.116 127.739 143.8 128.238 143.523C129.073 143.078 129.674 142.191 130.157 141.264L128.382 142.764C129.13 140.86 130.961 140.589 131.917 139.378C132.415 139.454 132.916 139.614 133.399 139.57C133.642 139.548 133.852 139.156 134.378 138.63L133.143 139.054C133.15 138.928 133.112 138.759 133.173 138.709C133.812 138.175 134.229 137.428 135.181 137.195C135.883 137.023 136.185 136.131 137.036 135.823C138.018 135.468 138.773 134.519 139.686 133.919C140.583 133.329 141.443 132.686 142.384 132.147C143.759 131.36 144.995 130.33 146.366 129.533C147.736 128.736 148.785 127.461 150.375 127.005C151.176 126.775 151.622 125.998 152.429 125.63C154.139 124.852 155.675 123.698 157.302 122.731C158.171 122.216 159.121 121.859 159.887 121.147C160.263 120.756 160.744 120.482 161.272 120.359C161.8 120.236 162.353 120.27 162.862 120.456C162.755 120.148 162.665 119.884 162.567 119.6L163.143 119.565L163.163 119.198C163.862 118.841 164.604 118.656 165.046 118.188C165.65 117.549 166.441 117.6 167.406 116.956C168.408 115.432 170.853 115.35 172.425 113.792C172.717 114.008 173.018 114.231 173.607 114.666C173.44 114.049 173.34 113.68 173.313 113.58C174.65 112.622 176.164 111.938 177.766 111.567L178.161 111.963C178.223 111.683 178.319 111.412 178.448 111.157C178.675 110.881 178.924 110.626 179.193 110.391L180.2 110.462L181.461 109.202C181.741 109.335 181.965 109.442 182.247 109.576L182.427 108.766L183.983 108.684C184.332 108.965 184.574 109.16 185.01 109.511L184.658 107.743C185.851 107.225 187.129 106.947 188.256 106.161C189.251 105.469 190.607 105.437 191.736 104.807C192.359 104.46 193.263 104.58 193.752 103.835C194.524 104.016 195.093 103.534 195.739 103.26C196.548 102.917 197.16 102.016 198.086 102.137C199.019 102.259 199.545 101.132 200.482 101.527C201.14 101.002 202.029 100.94 202.689 100.533C203.391 100.088 204.196 99.829 205.026 99.7819C205.302 99.7618 205.556 99.4411 205.925 99.186ZM132.86 148.488C133.193 148.028 133.376 147.492 133.708 147.372C134.817 146.971 135.645 146.167 136.585 145.537C137.736 144.766 138.718 143.679 139.863 142.985C141.434 142.03 142.953 140.966 144.408 139.897C145.907 138.795 147.58 137.934 148.973 136.665C149.596 136.097 150.508 135.848 151.278 135.433C151.361 135.389 151.371 135.211 151.428 135.062C151.299 134.949 151.161 134.829 150.986 134.675C150.094 135.347 149.306 136.214 148.329 136.594C147.452 136.936 147.04 137.864 146.31 138.041C145.432 138.253 145.142 139.209 144.397 139.279C143.522 139.364 143.4 140.351 142.651 140.46C141.753 140.591 141.508 141.609 140.807 141.865C139.821 142.226 139.321 143.351 138.478 143.532C137.339 143.777 137.102 145.22 135.886 145.124C135.297 146.051 134.238 146.365 133.43 147.007C132.519 147.733 131.688 148.631 130.664 149.123C129.79 149.542 129.274 150.439 128.493 150.691C127.769 150.925 127.486 151.609 126.912 151.758C126.137 151.96 125.737 152.536 125.172 152.955C124.701 153.304 124.209 153.636 123.704 153.947C122.775 154.519 121.745 154.987 121.076 155.924C120.922 156.14 120.674 156.491 120.513 156.469C119.513 156.327 119.364 157.496 118.56 157.656C117.645 157.839 117.264 158.739 116.603 159.269C116.394 159.437 116.228 159.797 116.026 159.811C115.268 159.861 114.971 160.63 114.415 160.815C113.649 161.069 113.623 161.831 113.099 162.204C112.314 162.764 111.548 163.352 110.785 163.942C110.133 164.446 109.497 164.971 108.776 165.549L108.75 165.869L107.445 166.288C107.144 167.18 106.648 167.725 105.834 167.946C104.936 168.19 104.822 169.046 104.478 169.696C104.083 170.444 102.818 170.025 102.69 171.271C102.625 171.896 101.755 172.439 101.191 173.084C102.503 172.732 103.649 171.93 104.43 170.818C105.219 169.74 106.762 169.555 107.288 168.232C108.228 168.09 108.427 167.309 108.684 166.551L110.106 166.467L110.649 165.215C111.359 165.089 112 164.857 111.962 163.938L113.053 163.937C114.18 162.918 115.126 161.625 116.608 160.944C117.239 160.639 117.824 160.247 118.347 159.781C119.333 158.932 120.261 158.043 121.331 157.265C122.474 156.437 123.855 155.839 124.719 154.611C124.859 154.412 125.294 154.422 125.61 154.33C125.629 154.096 125.568 153.815 125.672 153.726C126.498 153.017 127.344 152.333 128.211 151.674C128.343 151.573 128.596 151.631 128.795 151.616C128.804 151.432 128.813 151.236 128.828 150.94L130.525 150.39C130.525 150.326 130.499 150.241 130.529 150.194C131.025 149.447 132.043 149.319 132.515 148.523C132.573 148.429 132.891 148.485 132.86 148.488Z" fill="#7DC4A4"/>
<path d="M68.176 216.474C68.1047 216.29 68.0711 215.906 67.9157 215.848C66.2797 215.241 65.4825 213.816 64.5973 212.488C63.8684 211.393 63.0544 210.297 62.8299 208.986C62.4145 206.556 61.2846 204.181 62.1326 201.626C61.2764 200.672 62.72 199.5 61.849 198.546C62.3363 197.141 62.0138 195.67 62.1963 194.242C62.3114 193.344 62.3987 192.447 62.4488 191.543C62.4684 191.196 62.7465 190.863 62.961 190.409L62.4887 189.027L62.9695 186.878C62.7408 186.623 62.4382 186.285 62.1158 185.925L62.4307 185.249C62.1528 184.425 61.7185 185.155 61.3581 185.144C60.9556 184.057 61.0934 182.974 61.3929 181.837L63.9183 181.497L65.8314 183.41C66.2349 183.419 66.6324 183.429 67.0517 183.439C67.8374 184.461 69.0482 185.105 69.523 186.455C69.7512 187.103 70.2087 187.684 70.1381 188.413C70.0924 188.88 70.6922 189.282 70.1933 189.834C70.0839 189.955 70.5402 190.575 70.7185 190.972C71.0721 191.764 70.9345 192.628 70.9741 193.446C71.1138 195.396 71.1085 197.353 70.9583 199.302C70.7643 201.221 70.8412 203.18 70.2615 205.064C70.0919 205.614 70.1848 206.242 70.1337 206.833C70.0841 207.405 70.0039 207.974 69.9194 208.701L72.2033 207.792L71.8806 207.091C73.242 205.96 75.06 205.597 76.5955 204.552L77.2334 205.19L80.9366 203.243C81.4462 202.986 81.2292 202.059 82.1634 202.003L81.8534 202.854C82.4129 202.044 84.1657 202.621 83.8804 200.877C85.8402 201.03 86.9853 198.886 88.9987 199.378L89.0295 198.787C90.0167 198.342 91.1125 197.992 92.0418 197.388C93.0085 196.762 94.0961 197.346 95.267 196.593C95.7211 195.998 96.2966 195.507 96.9551 195.153C97.6137 194.799 98.3401 194.589 99.0858 194.538C99.6288 194.812 100.13 195.064 100.664 195.334L100.83 195.982L101.884 195.982L101.314 197.698L102.43 197.697L102.096 198.977C100.817 198.855 100.425 200.273 99.2716 200.711C97.6506 201.328 96.2662 202.544 94.7279 203.41C92.9301 204.421 91.0741 205.326 89.2503 206.29C87.3087 207.315 85.3662 208.331 83.4897 209.483C81.9509 210.428 80.1901 210.99 78.6798 212.016C77.729 211.92 77.4464 213.185 76.4959 213.09C75.5288 214.278 73.8772 214.394 72.814 215.443C72.6015 215.652 72.2479 215.71 71.9933 215.887C70.8559 216.676 69.7016 217.331 68.176 216.474Z" fill="#7DC4A4"/>
</g>
<defs>
<clipPath id="clip0_1054_1322">
<rect width="223" height="167" fill="white" transform="translate(275.771 118.087) rotate(135)"/>
</clipPath>
</defs>
</svg>
