<svg width="232" height="232" viewBox="0 0 232 232" fill="none" xmlns="http://www.w3.org/2000/svg">
<g filter="url(#filter0_d_0_1)">
<circle cx="116" cy="116" r="52" fill="white"/>
</g>
<path d="M118.333 105.5C122.199 105.5 125.333 102.366 125.333 98.5C125.333 94.634 122.199 91.5 118.333 91.5C114.467 91.5 111.333 94.634 111.333 98.5C111.333 102.366 114.467 105.5 118.333 105.5Z" fill="#FBD531" fill-opacity="0.4"/>
<path d="M105.5 123.001V111.917C105.5 110.368 106.053 108.945 106.971 107.834H95.5833C93.3317 107.834 91.5 109.666 91.5 111.917V123.001C91.5 128.791 96.211 133.501 102 133.501C104.455 133.501 106.71 132.648 108.5 131.231C106.63 129.001 105.5 126.132 105.5 123.001Z" fill="#FBD531" fill-opacity="0.4"/>
<path d="M102 105.5C105.866 105.5 109 102.366 109 98.5C109 94.634 105.866 91.5 102 91.5C98.134 91.5 95 94.634 95 98.5C95 102.366 98.134 105.5 102 105.5Z" fill="#FBD531" fill-opacity="0.4"/>
<path d="M113.667 128.834C113.667 120.457 120.457 113.667 128.834 113.667V111.917C128.834 109.666 127.002 107.834 124.751 107.834H111.917C109.666 107.834 107.834 109.666 107.834 111.917V123.001C107.834 127.31 110.445 131.017 114.167 132.634C113.852 131.417 113.667 130.149 113.667 128.834Z" fill="#FBD531" fill-opacity="0.4"/>
<path d="M128.833 116C121.746 116 116 121.746 116 128.833C116 135.921 121.746 141.667 128.833 141.667C135.921 141.667 141.667 135.921 141.667 128.833C141.667 121.746 135.921 116 128.833 116ZM137 130H130V137C130 137.644 129.477 138.167 128.833 138.167C128.189 138.167 127.667 137.644 127.667 137V130H120.667C120.023 130 119.5 129.477 119.5 128.833C119.5 128.189 120.023 127.667 120.667 127.667H127.667V120.667C127.667 120.023 128.189 119.5 128.833 119.5C129.477 119.5 130 120.023 130 120.667V127.667H137C137.644 127.667 138.167 128.189 138.167 128.833C138.167 129.477 137.644 130 137 130Z" fill="#FBD531"/>
<defs>
<filter id="filter0_d_0_1" x="0" y="0" width="232" height="232" filterUnits="userSpaceOnUse" color-interpolation-filters="sRGB">
<feFlood flood-opacity="0" result="BackgroundImageFix"/>
<feColorMatrix in="SourceAlpha" type="matrix" values="0 0 0 0 0 0 0 0 0 0 0 0 0 0 0 0 0 0 127 0" result="hardAlpha"/>
<feOffset/>
<feGaussianBlur stdDeviation="32"/>
<feComposite in2="hardAlpha" operator="out"/>
<feColorMatrix type="matrix" values="0 0 0 0 0 0 0 0 0 0 0 0 0 0 0 0 0 0 0.16 0"/>
<feBlend mode="normal" in2="BackgroundImageFix" result="effect1_dropShadow_0_1"/>
<feBlend mode="normal" in="SourceGraphic" in2="effect1_dropShadow_0_1" result="shape"/>
</filter>
</defs>
</svg>
