<svg width="276" height="276" viewBox="0 0 276 276" fill="none" xmlns="http://www.w3.org/2000/svg">
<g clip-path="url(#clip0_1054_1319)">
<path d="M69.8461 99.186C69.6045 99.3306 69.4429 99.4272 69.1917 99.5774L69.1135 99.045C68.0074 98.7292 66.8728 98.4371 65.7592 98.0796C64.2669 97.6008 62.8231 97.0246 61.2596 96.6959C59.9329 96.4174 58.6161 95.7024 57.2596 95.7127C55.9778 95.7219 55.0302 94.6248 53.7488 94.9317C52.6478 94.09 51.2558 94.5248 50.0517 94.0954C49.6983 93.969 49.3286 94.0147 48.9857 93.7091C48.6427 93.4036 48.5662 93.4837 47.5123 93.8055C47.398 93.7192 47.2445 93.6105 47.1 93.4909C46.9971 93.4053 46.8719 93.2065 46.816 93.2253C45.4707 93.7073 44.4932 92.2723 43.1991 92.5366C43.0766 92.5617 42.904 92.6717 42.8439 92.6258C41.1384 91.3183 38.9229 91.7239 37.0869 90.8928C36.3989 90.5811 35.6768 90.8998 35.0038 90.6334C34.7152 90.5191 34.4052 90.459 34.0671 90.3634C33.7772 90.5765 33.4634 90.7549 33.1319 90.8949C32.7019 90.976 32.2647 91.0136 31.827 91.007C32.2552 92.1138 33.2421 92.5642 33.5458 93.563L31.852 92.0204L31.3801 92.2916C32.615 94.6886 32.5788 94.7748 35.5802 96.034C37.7037 96.9251 39.7308 98.1456 42.1025 98.3563C43.6194 99.3155 45.4081 99.4923 47.0628 100.05C49.3185 100.81 51.6505 101.338 53.9243 102.049C56.786 102.942 59.6273 103.901 62.4656 104.867C65.1228 105.771 67.7005 106.864 70.2744 107.994C71.9729 108.739 73.7409 109.388 75.4621 110.115C77.1833 110.843 78.8814 111.629 80.5831 112.402C81.8321 112.969 83.1733 113.409 84.2887 114.176C85.4685 114.988 86.915 115.031 88.0684 115.828C88.7953 116.331 89.7544 116.475 90.3055 117.263C90.3818 117.372 90.4822 117.523 90.5907 117.541C92.3896 117.847 93.7257 119.093 95.2937 119.864C96.9223 120.666 98.5008 121.575 100.077 122.479C100.949 122.978 101.749 123.587 102.7 123.966C103.821 124.413 104.654 125.342 105.746 125.887C107.086 126.581 108.382 127.357 109.626 128.211C110.843 129.019 112.076 129.798 113.327 130.55C115.762 132.012 117.992 133.801 120.568 135.038C121.25 135.366 121.682 136.021 122.448 136.359C123.48 136.815 124.209 138.061 125.247 138.375C126.392 138.72 126.733 140.111 127.986 140.087C129.422 141.607 131.424 142.381 132.913 143.842C133.355 144.277 133.967 144.536 134.496 144.884C135.08 145.269 135.666 145.65 136.235 146.056C136.752 146.425 137.012 147.191 137.836 147.078C138.485 147.927 139.5 148.319 140.264 148.995C141.244 149.861 142.585 150.263 143.32 151.421C144.424 151.362 144.69 152.806 145.792 152.804C145.985 152.804 146.178 153.148 146.373 153.33C146.938 153.859 147.426 154.423 148.243 154.686C148.941 154.912 149.187 155.854 150.129 156.024C150.67 156.121 151.088 156.905 151.542 157.359L152.604 157.36C152.855 158.671 153.854 158.964 154.974 159.103C154.895 159.988 155.617 160.558 156.185 160.723C156.918 160.937 157.287 161.423 157.741 161.861C159.067 163.14 160.755 163.978 161.956 165.426C162.265 165.798 162.984 165.829 163.499 166.012C163.598 166.287 163.72 166.555 163.863 166.811C164.325 167.519 165.184 167.775 165.678 168.543C166.087 169.18 166.948 169.62 167.7 169.905C168.114 170.062 168.017 170.355 168.165 170.478C169.005 171.18 169.432 172.373 170.719 172.575C171.042 172.626 171.296 173.113 171.583 173.399C173.633 175.449 175.678 177.507 177.739 179.546C178.204 180.006 178.673 180.525 179.244 180.797C179.831 181.078 179.591 181.838 180.209 182.051C180.61 182.188 180.949 182.502 181.377 182.776C181.638 183.235 181.939 183.669 182.278 184.074C183.778 185.625 185.241 187.227 186.866 188.639C188.888 190.398 190.326 192.646 192.109 194.603C193.394 196.013 194.167 197.89 195.247 199.691L196.747 200.388L196.779 200.907L198.593 200.741L196.889 197.873L198.066 197.672L199.541 199.146L200.657 199.147L200.393 197.342L201.264 197.726C202.229 197.109 202.185 196.115 202.2 195.152C202.391 195.142 202.579 195.131 202.626 195.128L202.611 192.995C202.141 192.707 201.177 192.731 201.048 191.733C201.238 191.721 201.429 191.711 201.791 191.689L199.803 190.254L199.968 189.983L201.054 190.649L200.563 189.098C200.315 189.184 200.102 189.258 199.691 189.4L198.624 188.451C199.028 188.287 199.323 188.168 199.862 187.951C199.513 187.602 199.305 187.362 199.065 187.159C197.336 185.696 196.333 183.609 194.628 182.102C192.913 180.586 191.407 178.836 189.71 177.298C189.348 176.97 189.673 176.226 188.877 176.213C188.631 176.209 188.398 175.447 188.15 175.441C187.251 175.418 187.755 174.592 187.358 174.248C186.667 173.652 185.788 173.413 185.133 172.706C183.164 170.58 181.086 168.553 178.998 166.542C178.211 165.784 177.242 165.217 176.421 164.489C175.58 163.743 174.818 162.907 173.968 162.171C174.81 163.664 177.602 166.381 179.019 167.454C178.741 167.304 178.464 167.155 178.187 167.006L178.17 167.402C177.314 166.546 176.408 165.734 175.614 164.823C174.476 163.519 172.729 162.954 171.715 161.518C170.906 161.469 170.558 160.576 169.957 160.41C168.999 160.146 169.135 158.985 168.137 158.729C167.384 158.535 166.789 157.728 165.981 157.08L165.274 157.007C165.24 157.1 165.207 157.192 165.174 157.285L169.828 161.052L169.871 161.658L169.026 161.657C168.991 161.414 168.955 161.172 168.879 160.648L167.706 161.354L167.661 160.809L167.446 160.173L166.888 160.539L164.658 159.183C164.795 158.799 164.899 158.511 165.016 158.184L163.027 157.255L162.823 156.453L160.982 156.669L160.982 156.023L159.834 155.628L159.848 156.473L160.489 156.517L160.939 157.723L161.703 157.353L162.522 159.011C163.524 159.124 163.879 160.217 164.763 160.78L165.848 160.81C165.726 161.727 166.677 161.939 167.038 162.673C166.918 162.808 166.766 162.98 166.495 163.287C166.448 162.926 166.428 162.759 166.391 162.456L165.263 162.676L165.3 161.46L163.915 161.014C163.908 160.187 163.265 160.011 162.571 159.772C161.985 159.569 161.475 159.154 160.894 158.811L159.662 159.15C159.904 158.565 160.014 158.301 160.179 157.904C159.701 157.548 159.191 157.167 158.68 156.787C158.165 156.405 157.691 155.813 157.121 155.693C156.354 155.533 156.768 154.543 155.924 154.442C155.359 154.375 154.855 153.787 154.328 153.437C154.421 152.943 154.49 152.573 154.621 151.879L155.843 153.344L156.353 153.365L156.421 152.82L156.92 152.771C156.922 152.67 156.972 152.502 156.918 152.454C156.471 152.067 155.979 151.729 155.55 151.323C155.091 150.886 154.755 150.108 154.244 149.986C153.468 149.8 153.254 149.126 152.631 148.788L151.39 148.756L151.176 147.458C153.316 148.211 154.876 149.644 156.869 150.961C156.426 150.154 155.806 149.458 155.056 148.925C154.681 148.636 154.123 148.589 153.756 148.162C153.465 147.823 152.768 147.625 152.734 147.312C152.646 146.515 151.976 146.944 151.692 146.647C151.337 146.241 150.952 145.862 150.542 145.512C150.045 145.124 149.465 144.844 148.958 144.466C148.509 144.116 148.032 143.8 147.534 143.523C146.698 143.078 146.097 142.191 145.614 141.264L147.39 142.764C146.642 140.86 144.811 140.589 143.855 139.378C143.356 139.454 142.855 139.614 142.373 139.57C142.13 139.548 141.92 139.156 141.393 138.63L142.629 139.054C142.621 138.928 142.66 138.759 142.598 138.709C141.959 138.175 141.543 137.428 140.591 137.195C139.889 137.023 139.586 136.131 138.736 135.823C137.753 135.468 136.999 134.519 136.086 133.919C135.188 133.329 134.328 132.686 133.388 132.147C132.012 131.36 130.777 130.33 129.406 129.533C128.035 128.736 126.986 127.461 125.397 127.005C124.596 126.775 124.15 125.998 123.342 125.63C121.633 124.852 120.097 123.698 118.47 122.731C117.6 122.216 116.65 121.859 115.884 121.147C115.509 120.756 115.028 120.482 114.499 120.359C113.971 120.236 113.419 120.27 112.91 120.456C113.016 120.148 113.107 119.884 113.204 119.6L112.629 119.565L112.609 119.198C111.91 118.841 111.168 118.656 110.726 118.188C110.122 117.549 109.331 117.6 108.366 116.956C107.364 115.432 104.918 115.35 103.347 113.792C103.055 114.008 102.753 114.231 102.164 114.666C102.331 114.049 102.431 113.68 102.458 113.58C101.121 112.622 99.6077 111.938 98.0055 111.567L97.6101 111.963C97.5487 111.683 97.4523 111.412 97.3231 111.157C97.0963 110.881 96.8471 110.626 96.578 110.391L95.571 110.462L94.3109 109.202C94.0306 109.335 93.8063 109.442 93.5248 109.576L93.3445 108.766L91.7887 108.684C91.4399 108.965 91.1974 109.16 90.7616 109.511L91.1132 107.743C89.9206 107.225 88.6427 106.947 87.5152 106.161C86.5204 105.469 85.1649 105.437 84.0355 104.807C83.4124 104.46 82.5087 104.58 82.0195 103.835C81.2471 104.016 80.6789 103.534 80.0323 103.26C79.2237 102.917 78.6117 102.016 77.6859 102.137C76.7522 102.259 76.2265 101.132 75.2892 101.527C74.6314 101.002 73.7429 100.94 73.0827 100.533C72.3802 100.088 71.5756 99.829 70.7455 99.7819C70.4695 99.7618 70.215 99.4411 69.8461 99.186ZM142.911 148.488C142.578 148.028 142.396 147.492 142.064 147.372C140.955 146.971 140.127 146.167 139.187 145.537C138.035 144.766 137.053 143.679 135.909 142.985C134.338 142.03 132.818 140.966 131.364 139.897C129.864 138.795 128.192 137.934 126.799 136.665C126.175 136.097 125.264 135.848 124.494 135.433C124.41 135.389 124.401 135.211 124.343 135.062C124.473 134.949 124.61 134.829 124.786 134.675C125.678 135.347 126.466 136.214 127.442 136.594C128.319 136.936 128.731 137.864 129.461 138.041C130.339 138.253 130.629 139.209 131.374 139.279C132.249 139.364 132.372 140.351 133.121 140.46C134.018 140.591 134.263 141.609 134.965 141.865C135.95 142.226 136.451 143.351 137.293 143.532C138.433 143.777 138.67 145.22 139.885 145.124C140.474 146.051 141.534 146.365 142.341 147.007C143.253 147.733 144.084 148.631 145.108 149.123C145.982 149.542 146.497 150.439 147.278 150.691C148.003 150.925 148.285 151.609 148.859 151.758C149.635 151.96 150.034 152.536 150.599 152.955C151.07 153.304 151.562 153.636 152.068 153.947C152.997 154.519 154.026 154.987 154.695 155.924C154.85 156.14 155.098 156.491 155.258 156.469C156.258 156.327 156.408 157.496 157.212 157.656C158.126 157.839 158.507 158.739 159.168 159.269C159.378 159.437 159.543 159.797 159.745 159.811C160.503 159.861 160.801 160.63 161.357 160.815C162.123 161.069 162.148 161.831 162.673 162.204C163.458 162.764 164.224 163.352 164.987 163.942C165.638 164.446 166.274 164.971 166.996 165.549L167.022 165.869L168.326 166.288C168.628 167.18 169.124 167.725 169.938 167.946C170.835 168.19 170.95 169.046 171.294 169.696C171.688 170.444 172.953 170.025 173.082 171.271C173.147 171.896 174.017 172.439 174.58 173.084C173.269 172.732 172.122 171.93 171.342 170.818C170.553 169.74 169.01 169.555 168.484 168.232C167.543 168.09 167.345 167.309 167.087 166.551L165.666 166.467L165.122 165.215C164.413 165.089 163.772 164.857 163.81 163.938L162.718 163.937C161.592 162.918 160.645 161.625 159.163 160.944C158.533 160.639 157.948 160.247 157.425 159.781C156.438 158.932 155.511 158.043 154.44 157.265C153.297 156.437 151.916 155.839 151.052 154.611C150.913 154.412 150.477 154.422 150.162 154.33C150.142 154.096 150.203 153.815 150.099 153.726C149.274 153.017 148.427 152.333 147.561 151.674C147.429 151.573 147.175 151.631 146.977 151.616C146.968 151.432 146.958 151.236 146.943 150.94L145.246 150.39C145.246 150.326 145.273 150.241 145.242 150.194C144.747 149.447 143.729 149.319 143.256 148.523C143.199 148.429 142.881 148.485 142.911 148.488Z" fill="#EB9191"/>
<path d="M207.595 216.474C207.667 216.29 207.7 215.906 207.856 215.848C209.492 215.241 210.289 213.816 211.174 212.488C211.903 211.393 212.717 210.297 212.942 208.986C213.357 206.556 214.487 204.181 213.639 201.626C214.495 200.672 213.051 199.5 213.923 198.546C213.435 197.141 213.758 195.67 213.575 194.242C213.46 193.344 213.373 192.447 213.323 191.543C213.303 191.196 213.025 190.863 212.811 190.409L213.283 189.027L212.802 186.878C213.031 186.623 213.333 186.285 213.656 185.925L213.341 185.249C213.619 184.425 214.053 185.155 214.413 185.144C214.816 184.057 214.678 182.974 214.379 181.837L211.853 181.497L209.94 183.41C209.537 183.419 209.139 183.429 208.72 183.439C207.934 184.461 206.723 185.105 206.248 186.455C206.02 187.103 205.563 187.684 205.633 188.413C205.679 188.88 205.079 189.282 205.578 189.834C205.688 189.955 205.231 190.575 205.053 190.972C204.699 191.764 204.837 192.628 204.797 193.446C204.658 195.396 204.663 197.353 204.813 199.302C205.007 201.221 204.93 203.18 205.51 205.064C205.68 205.614 205.587 206.242 205.638 206.833C205.687 207.405 205.768 207.974 205.852 208.701L203.568 207.792L203.891 207.091C202.529 205.96 200.711 205.597 199.176 204.552L198.538 205.19L194.835 203.243C194.325 202.986 194.542 202.059 193.608 202.003L193.918 202.854C193.359 202.044 191.606 202.621 191.891 200.877C189.931 201.03 188.786 198.886 186.773 199.378L186.742 198.787C185.755 198.342 184.659 197.992 183.73 197.388C182.763 196.762 181.675 197.346 180.504 196.593C180.05 195.998 179.475 195.507 178.816 195.153C178.158 194.799 177.431 194.589 176.686 194.538C176.143 194.812 175.642 195.064 175.107 195.334L174.942 195.982L173.888 195.982L174.458 197.698L173.341 197.697L173.676 198.977C174.955 198.855 175.346 200.273 176.5 200.711C178.121 201.328 179.505 202.544 181.044 203.41C182.841 204.421 184.697 205.326 186.521 206.29C188.463 207.315 190.405 208.331 192.282 209.483C193.821 210.428 195.581 210.99 197.092 212.016C198.042 211.92 198.325 213.185 199.276 213.09C200.243 214.278 201.894 214.394 202.957 215.443C203.17 215.652 203.524 215.71 203.778 215.887C204.916 216.676 206.07 217.331 207.595 216.474Z" fill="#EB9191"/>
</g>
<defs>
<clipPath id="clip0_1054_1319">
<rect width="223" height="167" fill="white" transform="matrix(0.707107 0.707107 0.707107 -0.707107 0 118.087)"/>
</clipPath>
</defs>
</svg>
