<svg width="602" height="12" viewBox="0 0 602 12" fill="none" xmlns="http://www.w3.org/2000/svg">
<path d="M572.047 1.74081C600.293 2.82689 595.676 2.01367 594.924 2.5502L602 3.18438L596.657 4.09586L597.94 4.45572C597.592 4.51846 597.196 4.65134 596.843 4.64483C588.093 4.48591 579.63 5.21893 570.81 5.07126C561.949 4.87687 553.033 4.88678 544.18 5.10086C537.041 5.31275 529.97 5.37785 522.838 5.44118C520.64 5.46071 518.843 5.00616 516.17 5.36956C514.172 5.64123 511.062 5.42313 508.447 5.42313H499.819C497.204 5.42313 494.589 5.42106 491.975 5.42313C489.36 5.4252 486.763 5.43053 484.158 5.44444C483.968 5.44444 483.787 5.52908 483.124 5.69154L489.725 5.8987C489.714 5.98008 489.704 6.06117 489.693 6.14226C486.967 6.15883 484.241 6.18191 481.514 6.1899C478.639 6.19818 475.762 6.19463 472.886 6.1899C472.397 6.1899 471.669 6.19582 471.455 6.12539C468.555 5.17307 465.299 5.29085 461.439 5.77855C459.989 5.96114 457.84 5.80815 456.01 5.80815C431.431 5.80815 406.853 5.79808 382.274 5.82264C379.598 5.8253 376.509 5.50214 374.275 6.18842C374.161 6.20391 374.033 6.21205 373.903 6.21205C373.773 6.21205 373.645 6.20391 373.531 6.18842C371.323 5.55334 368.808 6.50152 367.052 6.16593C364.784 5.73209 363.262 5.80755 361.131 6.16326C360.48 6.27187 358.775 6.07715 357.714 5.94427C356.23 5.75813 356.325 5.50037 357.7 5.27546C357.43 5.19674 357.216 5.07393 356.876 5.05026C356.425 5.01829 355.602 5.01859 355.433 5.0831C354.918 5.27901 354.851 5.5634 354.225 5.71818C353.434 5.94942 352.343 6.10717 351.134 6.16504C349.322 6.17096 347.092 5.80134 345.78 5.95937C344.938 6.07519 343.991 6.13719 343.026 6.13962C342.06 6.14205 341.108 6.08484 340.257 5.97327C338.831 5.83122 336.72 6.17333 334.909 6.18043C327.609 6.21002 320.307 6.19256 313.177 6.19256L311.244 5.42313C310.265 5.62703 309.287 5.83122 307.459 6.21268C304.409 6.40178 299.112 5.68888 295.925 6.98744L293.343 6.29081C287.418 6.74989 281.056 6.74431 275.145 6.27483C268.947 6.97531 262.522 6.36361 256.259 6.60598C256.468 6.35225 256.557 6.09348 256.524 5.83478C254.085 5.63443 254.476 6.17954 253.793 6.54502H245.468C245.049 6.82438 244.716 7.04633 244.364 7.2819C244.001 7.23691 243.492 7.2159 243.301 7.14399C241.812 6.58734 239.262 6.35888 237.26 6.60776C232.548 7.19194 227.704 6.88239 222.936 6.94779C218.828 7.00431 214.7 6.95963 210.5 7.23751L218.046 7.42425C212.297 7.54765 206.185 8.34164 201.886 7.06557C199.292 7.19194 196.669 7.28087 194.032 7.33191C186.508 7.36417 178.979 7.34375 171.608 7.34375C171.145 7.66928 170.828 7.8936 170.356 8.22653C169.088 7.75865 168.053 7.3769 167.021 6.99544C166.489 7.52279 165.251 8.06998 163.007 7.69207C160.635 7.29226 159.273 7.56659 157.101 7.67283C153.131 7.86696 148.885 7.72816 144.637 7.97675L150.583 8.20551C150.258 8.33039 150.043 8.48606 149.823 8.48635C144.072 8.49967 138.302 8.56212 132.571 8.47541C128.342 8.41119 124.256 7.94776 119.884 8.11437C119.466 8.1251 119.062 8.15693 118.697 8.20787C118.332 8.2588 118.014 8.32773 117.763 8.4103L124.058 8.57188C117.499 8.73701 111.072 9.17529 104.461 8.57513C101.535 8.30879 97.873 8.53045 94.3448 8.73464L98.7188 8.99773C98.4651 9.09894 98.2597 9.2549 98.0422 9.25608C95.4359 9.26881 92.8272 9.25875 90.2197 9.25608C88.8193 8.44522 86.7242 9.64878 84.5927 9.1161C83.2093 8.77015 80.3226 9.58398 77.5182 8.95334C75.9921 8.61035 72.1268 8.89208 69.2052 9.14126L75.3856 9.37801C74.9288 9.50052 74.6485 9.64227 74.3597 9.64435C70.4388 9.65885 66.5059 9.61269 62.5958 9.66299C54.9619 9.76095 47.2167 9.75355 39.7592 10.1013C35.7392 10.2889 31.7978 10.3277 27.8213 10.4457C24.4079 10.5469 21.0827 10.8414 19.7499 11.9476C18.3882 11.9476 15.3638 12.0793 15.0968 11.9251C13.932 11.2498 10.3845 11.1788 9.59548 10.5984C8.84755 10.0492 7.61268 9.87991 5.75916 9.62481C2.01347 9.10988 1.20996 8.12384 3.10093 7.16382L0.00650103 6.36125C0.0512077 6.22275 -0.10708 6.05554 0.16116 5.98067C2.97101 5.18675 6.93812 4.69377 11.2134 4.60724C18.8896 4.37434 26.3895 3.79756 34.2554 3.88782C38.7612 3.21427 43.7538 3.62148 48.506 3.49718C52.2251 3.39953 55.9056 3.19829 59.6295 3.13289C63.2713 3.06897 67.3239 3.36076 70.5174 3.06157C75.1089 2.63099 79.6122 2.68603 84.0659 2.76919C89.792 2.87632 95.0698 2.31019 100.685 2.34274C106.434 2.37618 112.428 2.60435 117.89 2.29599C128.435 1.70027 139.048 2.29362 149.426 1.92695C162.298 1.4721 175.294 1.91453 187.985 1.51501C205.081 0.977004 222.108 1.38539 239.143 1.19984C241.229 1.17705 243.326 1.20251 245.417 1.19511C247.176 1.18919 249.112 1.30904 250.287 0.829625C251.221 1.43629 253.244 0.770439 254.878 1.06193C255.874 1.2395 258.363 0.869285 260.213 0.825191C262.284 0.774882 264.391 0.813649 266.484 0.813649H290.016C292.108 0.813649 294.214 0.776358 296.287 0.823412C298.739 0.878751 301.168 0.675449 303.709 1.10219C304.93 1.30697 307.772 0.843534 309.896 0.829625C316.428 0.786123 322.971 0.841174 329.504 0.800039C331.933 0.784354 334.669 1.07851 336.741 0.437815C338.104 0.0169953 339.116 1.17291 341.173 0.543164C341.823 0.344 345.082 0.31145 345.431 0.454387C347.408 1.2617 349.643 0.0365264 351.15 0.533401C353.282 1.23684 354.611 0.409103 356.33 0.435738C357.307 0.465213 358.276 0.510289 359.229 0.570682C360.921 0.652064 363.611 0.93439 364.135 0.77784C366.282 0.14158 368.792 0.765407 371.143 0.520965C373.582 0.267645 376.759 0.430409 379.613 0.430409C430.863 0.428042 482.111 0.447573 533.36 0.406142C540.192 0.400519 547.255 0.820453 553.89 0.0442162C557.378 0.778431 560.825 -0.0368667 564.363 0.00130892C575.316 0.119683 586.304 0.0442162 598.033 0.0442162C597.636 0.343406 597.398 0.774584 597.003 0.784054C591.464 0.908642 586.1 1.27974 580.402 1.22796C568.912 1.12497 557.396 1.19511 545.892 1.20517C545.475 1.20517 545.062 1.32354 544.646 1.38865C545.141 1.46503 545.667 1.52804 546.217 1.57657C547.598 1.66062 548.868 2.08646 550.497 1.60054C550.917 1.47506 552.494 1.5816 553.539 1.5816C568.681 1.5816 583.824 1.5816 572.038 1.74348C544.714 1.83729 544.743 1.76952 544.771 1.70145C542.375 1.51419 539.938 1.36045 537.471 1.24098C536.158 1.19274 527.857 1.26318 526.667 1.22234C525.648 1.18712 524.082 1.0939 523.646 1.21583C521.515 1.81983 518.8 1.57094 516.361 1.57094C479.215 1.58633 442.07 1.58466 404.926 1.56591C402.751 1.56591 400.258 1.84883 398.28 1.31674C397.904 1.21553 396.534 1.16582 396.262 1.23773C393.881 1.86807 390.869 1.50407 388.167 1.57272C382.636 1.71507 376.983 1.34041 371.492 1.92992C369.941 2.09653 367.579 1.85682 365.638 1.74999C361.902 1.54461 358.198 1.39724 354.557 1.81806C353.286 1.96602 351.713 1.41529 350.666 1.93643C348.657 1.31704 345.287 1.41706 343.537 1.64049C340.629 2.01515 338.527 1.30461 336.075 1.57953C335.638 1.62866 334.978 1.61297 334.708 1.68843C333.419 2.05036 332.491 1.96809 330.806 1.74407C328.969 1.51899 326.85 1.47493 324.885 1.62096C322.778 1.84004 320.488 1.93277 318.206 1.89144C315.528 1.75857 313.261 1.9388 310.811 1.96069C291.676 2.13293 272.531 1.7275 253.367 2.30398C239.063 2.73427 224.561 2.15039 210.054 2.66709C196.861 3.13733 183.337 2.54546 169.9 3.06305C159.311 3.47115 148.37 2.89229 137.587 3.45901C132.586 3.7218 127.137 3.42321 121.94 3.52738C117.169 3.62296 112.515 3.35366 107.508 3.77773C102.837 4.1731 97.1916 3.87392 91.9766 3.89345C91.158 3.91402 90.349 3.95315 89.56 4.01034C89.9421 4.10881 90.4138 4.18378 90.9366 4.22914C91.4595 4.2745 92.0187 4.28896 92.5687 4.27135C101.781 4.19293 110.942 4.29828 120.207 3.94848C131.333 3.52855 142.723 4.06301 154.093 3.56377C164.644 3.10152 175.722 3.91268 186.349 3.11069C187.845 2.99794 189.112 3.84846 190.592 3.14266C192.291 3.77536 193.882 3.10241 195.527 3.09412C208.396 3.02902 221.337 3.40989 234.129 2.74788C235.845 2.6591 238.413 2.58719 239.395 2.81506C241.617 3.33087 242.705 2.52504 244.635 2.70349C246.238 2.85145 248.251 2.73308 250.081 2.73308C260.545 2.73308 271.01 2.75379 281.471 2.71887C284.162 2.7097 287.16 3.00949 289.574 2.38921C289.842 2.32026 291.256 2.54487 292.173 2.59429C293.381 2.65969 295.364 2.82453 295.733 2.70645C297.192 2.23917 298.054 2.64726 299.3 2.69461C300.545 2.74196 301.981 2.37234 303.333 2.37264C305.516 2.37264 308.073 2.1063 309.814 2.69314C311.333 2.25367 313.416 2.34837 315.372 2.35251C317.363 2.35636 319.575 2.19329 320.99 2.72657C322.401 2.18087 324.649 2.35518 326.629 2.3537C339.708 2.34423 352.797 2.42294 365.864 2.32765C378.728 2.23384 391.703 2.76534 404.455 1.96424C406.025 2.33357 408.07 2.1344 409.829 2.16932C412.103 2.2149 414.448 1.982 416.765 1.98022C419.443 1.97815 422.377 1.75295 424.69 2.31522C427.253 1.62777 430.59 1.98555 433.51 1.98318C468.04 1.95359 502.569 1.96543 537.098 1.96158C539.65 1.9604 542.172 1.9234 572.047 1.74081Z" fill="#EB9191"/>
</svg>
