<svg width="28" height="28" viewBox="0 0 28 28" fill="none" xmlns="http://www.w3.org/2000/svg">
<path d="M23.8298 7.74011L13.1607 18.4093C12.9903 18.5802 12.7663 18.6654 12.5423 18.6654C12.3183 18.6654 12.0943 18.5802 11.9234 18.4093L9.00673 15.4926C8.6649 15.1508 8.6649 14.5972 9.00673 14.2554C9.34857 13.9135 9.90215 13.9135 10.244 14.2554L12.5417 16.5531L22.7676 6.32728C20.6279 3.88428 17.4954 2.33203 14.0007 2.33203C7.56765 2.33203 2.33398 7.5657 2.33398 13.9987C2.33398 20.4317 7.56765 25.6654 14.0007 25.6654C20.4337 25.6654 25.6673 20.4317 25.6673 13.9987C25.6673 11.6951 24.9872 9.55078 23.8298 7.74011Z" fill="white"/>
</svg>
