<svg width="510" height="12" viewBox="0 0 510 12" fill="none" xmlns="http://www.w3.org/2000/svg">
<path d="M484.624 1.74081C508.554 2.82689 504.642 2.01367 504.006 2.5502L510 3.18438L505.473 4.09586L506.561 4.45572C506.266 4.51846 505.93 4.65134 505.631 4.64483C498.218 4.48591 491.048 5.21893 483.577 5.07126C476.07 4.87687 468.517 4.88678 461.016 5.10086C454.968 5.31275 448.978 5.37785 442.936 5.44118C441.074 5.46071 439.552 5.00616 437.287 5.36956C435.594 5.64123 432.959 5.42313 430.744 5.42313H423.434C421.219 5.42313 419.004 5.42106 416.789 5.42313C414.574 5.4252 412.374 5.43053 410.167 5.44444C410.006 5.44444 409.853 5.52908 409.291 5.69154L414.883 5.8987C414.874 5.98008 414.866 6.06117 414.856 6.14226C412.547 6.15883 410.238 6.18191 407.927 6.1899C405.491 6.19818 403.054 6.19463 400.618 6.1899C400.203 6.1899 399.587 6.19582 399.406 6.12539C396.949 5.17307 394.19 5.29085 390.92 5.77855C389.691 5.96114 387.871 5.80815 386.321 5.80815C365.498 5.80815 344.676 5.79808 323.853 5.82264C321.586 5.8253 318.97 5.50214 317.077 6.18842C316.98 6.20391 316.872 6.21205 316.762 6.21205C316.651 6.21205 316.543 6.20391 316.446 6.18842C314.576 5.55334 312.445 6.50152 310.958 6.16593C309.036 5.73209 307.746 5.80755 305.942 6.16326C305.39 6.27187 303.946 6.07715 303.047 5.94427C301.79 5.75813 301.87 5.50037 303.035 5.27546C302.806 5.19674 302.625 5.07393 302.337 5.05026C301.955 5.01829 301.258 5.01859 301.114 5.0831C300.678 5.27901 300.621 5.5634 300.091 5.71818C299.421 5.94942 298.496 6.10717 297.472 6.16504C295.937 6.17096 294.048 5.80134 292.937 5.95937C292.224 6.07519 291.421 6.13719 290.603 6.13962C289.785 6.14205 288.979 6.08484 288.258 5.97327C287.05 5.83122 285.261 6.17333 283.727 6.18043C277.542 6.21002 271.356 6.19256 265.316 6.19256L263.678 5.42313C262.849 5.62703 262.021 5.83122 260.472 6.21268C257.888 6.40178 253.401 5.68888 250.7 6.98744L248.513 6.29081C243.494 6.74989 238.104 6.74431 233.096 6.27483C227.846 6.97531 222.402 6.36361 217.097 6.60598C217.273 6.35225 217.349 6.09348 217.321 5.83478C215.255 5.63443 215.586 6.17954 215.007 6.54502H207.955C207.599 6.82438 207.318 7.04633 207.019 7.2819C206.712 7.23691 206.281 7.2159 206.119 7.14399C204.857 6.58734 202.697 6.35888 201.001 6.60776C197.009 7.19194 192.905 6.88239 188.866 6.94779C185.385 7.00431 181.889 6.95963 178.331 7.23751L184.723 7.42425C179.853 7.54765 174.675 8.34164 171.033 7.06557C168.835 7.19194 166.613 7.28087 164.379 7.33191C158.005 7.36417 151.627 7.34375 145.382 7.34375C144.99 7.66928 144.722 7.8936 144.321 8.22653C143.248 7.75865 142.37 7.3769 141.496 6.99544C141.046 7.52279 139.997 8.06998 138.096 7.69207C136.086 7.29226 134.933 7.56659 133.092 7.67283C129.729 7.86696 126.131 7.72816 122.533 7.97675L127.571 8.20551C127.295 8.33039 127.113 8.48606 126.927 8.48635C122.054 8.49967 117.166 8.56212 112.311 8.47541C108.729 8.41119 105.267 7.94776 101.563 8.11437C101.209 8.1251 100.867 8.15693 100.557 8.20787C100.248 8.2588 99.9783 8.32773 99.7657 8.4103L105.099 8.57188C99.5426 8.73701 94.0979 9.17529 88.4965 8.57513C86.0183 8.30879 82.9157 8.53045 79.9267 8.73464L83.6322 8.99773C83.4173 9.09894 83.2433 9.2549 83.059 9.25608C80.851 9.26881 78.641 9.25875 76.432 9.25608C75.2456 8.44522 73.4706 9.64878 71.6649 9.1161C70.4929 8.77015 68.0474 9.58398 65.6716 8.95334C64.3787 8.61035 61.1041 8.89208 58.629 9.14126L63.8649 9.37801C63.4779 9.50052 63.2404 9.64227 62.9958 9.64435C59.6741 9.65885 56.3422 9.61269 53.0297 9.66299C46.5624 9.76095 40.0009 9.75355 33.683 10.1013C30.2774 10.2889 26.9383 10.3277 23.5695 10.4457C20.6778 10.5469 17.8607 10.8414 16.7317 11.9476C15.578 11.9476 13.0159 12.0793 12.7897 11.9251C11.8029 11.2498 8.7975 11.1788 8.12906 10.5984C7.49544 10.0492 6.44928 9.87991 4.87903 9.62481C1.70576 9.10988 1.02505 8.12384 2.62704 7.16382L0.00550752 6.36125C0.0433819 6.22275 -0.0907157 6.05554 0.136531 5.98067C2.51697 5.18675 5.87781 4.69377 9.49971 4.60724C16.0028 4.37434 22.3565 3.79756 29.0204 3.88782C32.8375 3.21427 37.0672 3.62148 41.0931 3.49718C44.2439 3.39953 47.3618 3.19829 50.5167 3.13289C53.6019 3.06897 57.0352 3.36076 59.7406 3.06157C63.6304 2.63099 67.4455 2.68603 71.2186 2.76919C76.0696 2.87632 80.5409 2.31019 85.2977 2.34274C90.1681 2.37618 95.2464 2.60435 99.8732 2.29599C108.807 1.70027 117.798 2.29362 126.59 1.92695C137.495 1.4721 148.505 1.91453 159.256 1.51501C173.74 0.977004 188.165 1.38539 202.596 1.19984C204.364 1.17705 206.14 1.20251 207.912 1.19511C209.402 1.18919 211.042 1.30904 212.037 0.829625C212.828 1.43629 214.543 0.770439 215.927 1.06193C216.77 1.2395 218.879 0.869285 220.446 0.825191C222.2 0.774882 223.986 0.813649 225.759 0.813649H245.695C247.467 0.813649 249.251 0.776358 251.008 0.823412C253.084 0.878751 255.142 0.675449 257.295 1.10219C258.33 1.30697 260.737 0.843534 262.537 0.829625C268.07 0.786123 273.613 0.841174 279.148 0.800039C281.206 0.784354 283.523 1.07851 285.279 0.437815C286.433 0.0169953 287.291 1.17291 289.033 0.543164C289.584 0.344 292.345 0.31145 292.641 0.454387C294.315 1.2617 296.209 0.0365264 297.486 0.533401C299.292 1.23684 300.418 0.409103 301.874 0.435738C302.702 0.465213 303.523 0.510289 304.331 0.570682C305.764 0.652064 308.042 0.93439 308.487 0.77784C310.306 0.14158 312.432 0.765407 314.424 0.520965C316.489 0.267645 319.181 0.430409 321.599 0.430409C365.017 0.428042 408.433 0.447573 451.849 0.406142C457.638 0.400519 463.621 0.820453 469.242 0.0442162C472.197 0.778431 475.118 -0.0368667 478.115 0.00130892C487.394 0.119683 496.703 0.0442162 506.639 0.0442162C506.303 0.343406 506.101 0.774584 505.766 0.784054C501.074 0.908642 496.53 1.27974 491.703 1.22796C481.969 1.12497 472.213 1.19511 462.467 1.20517C462.113 1.20517 461.763 1.32354 461.411 1.38865C461.83 1.46503 462.276 1.52804 462.742 1.57657C463.912 1.66062 464.988 2.08646 466.368 1.60054C466.724 1.47506 468.06 1.5816 468.945 1.5816C481.773 1.5816 494.601 1.5816 484.617 1.74348C461.469 1.83729 461.493 1.76952 461.517 1.70145C459.487 1.51419 457.423 1.36045 455.333 1.24098C454.22 1.19274 447.188 1.26318 446.18 1.22234C445.317 1.18712 443.99 1.0939 443.62 1.21583C441.815 1.81983 439.515 1.57094 437.449 1.57094C405.98 1.58633 374.511 1.58466 343.043 1.56591C341.201 1.56591 339.089 1.84883 337.413 1.31674C337.095 1.21553 335.934 1.16582 335.704 1.23773C333.686 1.86807 331.134 1.50407 328.846 1.57272C324.16 1.71507 319.371 1.34041 314.719 1.92992C313.405 2.09653 311.404 1.85682 309.76 1.74999C306.595 1.54461 303.456 1.39724 300.372 1.81806C299.295 1.96602 297.963 1.41529 297.076 1.93643C295.374 1.31704 292.519 1.41706 291.037 1.64049C288.573 2.01515 286.792 1.30461 284.715 1.57953C284.344 1.62866 283.785 1.61297 283.557 1.68843C282.465 2.05036 281.679 1.96809 280.251 1.74407C278.695 1.51899 276.9 1.47493 275.235 1.62096C273.45 1.84004 271.51 1.93277 269.576 1.89144C267.308 1.75857 265.388 1.9388 263.312 1.96069C247.101 2.13293 230.882 1.7275 214.646 2.30398C202.528 2.73427 190.243 2.15039 177.953 2.66709C166.776 3.13733 155.318 2.54546 143.936 3.06305C134.964 3.47115 125.695 2.89229 116.56 3.45901C112.324 3.7218 107.707 3.42321 103.304 3.52738C99.2631 3.62296 95.3201 3.35366 91.0781 3.77773C87.1208 4.1731 82.3384 3.87392 77.9204 3.89345C77.2269 3.91402 76.5415 3.95315 75.8731 4.01034C76.1968 4.10881 76.5964 4.18378 77.0394 4.22914C77.4823 4.2745 77.956 4.28896 78.422 4.27135C86.2261 4.19293 93.9873 4.29828 101.837 3.94848C111.262 3.52855 120.912 4.06301 130.544 3.56377C139.483 3.10152 148.867 3.91268 157.87 3.11069C159.137 2.99794 160.211 3.84846 161.465 3.14266C162.904 3.77536 164.253 3.10241 165.646 3.09412C176.548 3.02902 187.512 3.40989 198.349 2.74788C199.802 2.6591 201.978 2.58719 202.81 2.81506C204.692 3.33087 205.613 2.52504 207.249 2.70349C208.607 2.85145 210.312 2.73308 211.863 2.73308C220.727 2.73308 229.593 2.75379 238.456 2.71887C240.735 2.7097 243.275 3.00949 245.32 2.38921C245.547 2.32026 246.745 2.54487 247.522 2.59429C248.546 2.65969 250.225 2.82453 250.538 2.70645C251.774 2.23917 252.504 2.64726 253.559 2.69461C254.615 2.74196 255.831 2.37234 256.976 2.37264C258.826 2.37264 260.992 2.1063 262.467 2.69314C263.754 2.25367 265.519 2.34837 267.176 2.35251C268.863 2.35636 270.736 2.19329 271.935 2.72657C273.13 2.18087 275.035 2.35518 276.712 2.3537C287.793 2.34423 298.881 2.42294 309.951 2.32765C320.849 2.23384 331.842 2.76534 342.644 1.96424C343.975 2.33357 345.707 2.1344 347.197 2.16932C349.124 2.2149 351.111 1.982 353.073 1.98022C355.342 1.97815 357.828 1.75295 359.787 2.31522C361.958 1.62777 364.785 1.98555 367.259 1.98318C396.512 1.95359 425.764 1.96543 455.017 1.96158C457.178 1.9604 459.315 1.9234 484.624 1.74081Z" fill="#EBED8B"/>
</svg>
